<svg width="400" height="300" viewBox="0 0 400 300" fill="none" xmlns="http://www.w3.org/2000/svg">
  <rect width="400" height="300" fill="url(#gradient1)"/>
  
  <!-- Power plant -->
  <rect x="140" y="120" width="120" height="80" fill="#1f2937" rx="8"/>
  <rect x="160" y="140" width="25" height="25" fill="#4b5563"/>
  <rect x="195" y="140" width="25" height="25" fill="#4b5563"/>
  <rect x="230" y="140" width="25" height="25" fill="#4b5563"/>
  <rect x="160" y="175" width="25" height="25" fill="#4b5563"/>
  <rect x="195" y="175" width="25" height="25" fill="#4b5563"/>
  <rect x="230" y="175" width="25" height="25" fill="#4b5563"/>
  
  <!-- Cooling towers -->
  <ellipse cx="100" cy="150" rx="20" ry="40" fill="#6b7280"/>
  <ellipse cx="100" cy="150" rx="15" ry="35" fill="#9ca3af"/>
  <ellipse cx="100" cy="150" rx="10" ry="30" fill="#d1d5db"/>
  
  <ellipse cx="300" cy="150" rx="20" ry="40" fill="#6b7280"/>
  <ellipse cx="300" cy="150" rx="15" ry="35" fill="#9ca3af"/>
  <ellipse cx="300" cy="150" rx="10" ry="30" fill="#d1d5db"/>
  
  <!-- Power lines -->
  <line x1="50" y1="80" x2="350" y2="80" stroke="#f59e0b" stroke-width="3"/>
  <line x1="50" y1="80" x2="50" y2="100" stroke="#f59e0b" stroke-width="2"/>
  <line x1="100" y1="80" x2="100" y2="100" stroke="#f59e0b" stroke-width="2"/>
  <line x1="150" y1="80" x2="150" y2="100" stroke="#f59e0b" stroke-width="2"/>
  <line x1="200" y1="80" x2="200" y2="100" stroke="#f59e0b" stroke-width="2"/>
  <line x1="250" y1="80" x2="250" y2="100" stroke="#f59e0b" stroke-width="2"/>
  <line x1="300" y1="80" x2="300" y2="100" stroke="#f59e0b" stroke-width="2"/>
  <line x1="350" y1="80" x2="350" y2="100" stroke="#f59e0b" stroke-width="2"/>
  
  <!-- Lightning bolts -->
  <path d="M80 60 L90 80 L85 85 L95 105" stroke="#fbbf24" stroke-width="3" fill="none"/>
  <path d="M320 60 L330 80 L325 85 L335 105" stroke="#fbbf24" stroke-width="3" fill="none"/>
  
  <!-- Energy symbols -->
  <circle cx="80" cy="40" r="15" fill="#10b981" opacity="0.8"/>
  <text x="80" y="46" text-anchor="middle" fill="white" font-family="Arial" font-size="12" font-weight="bold">⚡</text>
  
  <circle cx="320" cy="40" r="15" fill="#10b981" opacity="0.8"/>
  <text x="320" y="46" text-anchor="middle" fill="white" font-family="Arial" font-size="12" font-weight="bold">⚡</text>
  
  <!-- Control panel -->
  <rect x="50" y="200" width="80" height="60" fill="#1e40af" rx="6"/>
  <rect x="60" y="210" width="15" height="15" fill="#3b82f6" rx="2"/>
  <rect x="80" y="210" width="15" height="15" fill="#3b82f6" rx="2"/>
  <rect x="60" y="230" width="15" height="15" fill="#3b82f6" rx="2"/>
  <rect x="80" y="230" width="15" height="15" fill="#3b82f6" rx="2"/>
  <rect x="60" y="250" width="15" height="15" fill="#3b82f6" rx="2"/>
  <rect x="80" y="250" width="15" height="15" fill="#3b82f6" rx="2"/>
  
  <rect x="270" y="200" width="80" height="60" fill="#1e40af" rx="6"/>
  <rect x="280" y="210" width="15" height="15" fill="#3b82f6" rx="2"/>
  <rect x="300" y="210" width="15" height="15" fill="#3b82f6" rx="2"/>
  <rect x="280" y="230" width="15" height="15" fill="#3b82f6" rx="2"/>
  <rect x="300" y="230" width="15" height="15" fill="#3b82f6" rx="2"/>
  <rect x="280" y="250" width="15" height="15" fill="#3b82f6" rx="2"/>
  <rect x="300" y="250" width="15" height="15" fill="#3b82f6" rx="2"/>
  
  <!-- Security elements -->
  <circle cx="200" cy="40" r="15" fill="#10b981" opacity="0.8"/>
  <text x="200" y="46" text-anchor="middle" fill="white" font-family="Arial" font-size="16" font-weight="bold">🔒</text>
  
  <defs>
    <linearGradient id="gradient1" x1="0%" y1="0%" x2="100%" y2="100%">
      <stop offset="0%" style="stop-color:#fef3c7;stop-opacity:1" />
      <stop offset="100%" style="stop-color:#fde68a;stop-opacity:1" />
    </linearGradient>
  </defs>
</svg>
