<svg width="400" height="300" viewBox="0 0 400 300" fill="none" xmlns="http://www.w3.org/2000/svg">
  <!-- Bank Building -->
  <rect x="100" y="80" width="200" height="140" fill="#374151" rx="4"/>
  
  <!-- Columns -->
  <rect x="120" y="80" width="16" height="140" fill="#6b7280"/>
  <rect x="150" y="80" width="16" height="140" fill="#6b7280"/>
  <rect x="180" y="80" width="16" height="140" fill="#6b7280"/>
  <rect x="210" y="80" width="16" height="140" fill="#6b7280"/>
  <rect x="240" y="80" width="16" height="140" fill="#6b7280"/>
  <rect x="270" y="80" width="16" height="140" fill="#6b7280"/>
  
  <!-- Roof/Pediment -->
  <polygon points="90,80 200,50 310,80" fill="#475569"/>
  
  <!-- Steps -->
  <rect x="90" y="220" width="220" height="8" fill="#64748b"/>
  <rect x="95" y="228" width="210" height="8" fill="#64748b"/>
  <rect x="100" y="236" width="200" height="8" fill="#64748b"/>
  
  <!-- Dollar Sign -->
  <circle cx="200" cy="130" r="30" fill="#1e293b" stroke="#64748b" stroke-width="2"/>
  <path d="M185 130 Q185 115 200 115 Q215 115 215 125 Q215 135 200 135 Q185 135 185 145 Q185 155 200 155 Q215 155 215 145" 
        stroke="#9ca3af" stroke-width="3" fill="none"/>
  <line x1="200" y1="105" x2="200" y2="160" stroke="#9ca3af" stroke-width="3"/>
  
  <!-- Security Shield -->
  <g transform="translate(50, 100)">
    <path d="M25 20 L25 35 Q25 45 35 50 Q45 45 45 35 L45 20 Q35 15 25 20" fill="#475569" stroke="#64748b" stroke-width="1"/>
    <path d="M30 25 L33 30 L40 23" stroke="#9ca3af" stroke-width="2" fill="none" stroke-linecap="round"/>
  </g>
  
  <!-- Credit Card -->
  <g transform="translate(320, 120)">
    <rect width="50" height="30" fill="#374151" rx="4" stroke="#64748b" stroke-width="1"/>
    <rect x="5" y="8" width="40" height="4" fill="#64748b"/>
    <rect x="5" y="18" width="15" height="3" fill="#9ca3af"/>
    <rect x="25" y="18" width="15" height="3" fill="#9ca3af"/>
  </g>
  
  <!-- Digital Network Nodes -->
  <circle cx="80" cy="60" r="4" fill="#64748b"/>
  <circle cx="150" cy="40" r="4" fill="#64748b"/>
  <circle cx="250" cy="40" r="4" fill="#64748b"/>
  <circle cx="320" cy="60" r="4" fill="#64748b"/>
  
  <!-- Connecting Lines -->
  <line x1="80" y1="60" x2="150" y2="40" stroke="#64748b" stroke-width="1" opacity="0.6"/>
  <line x1="150" y1="40" x2="250" y2="40" stroke="#64748b" stroke-width="1" opacity="0.6"/>
  <line x1="250" y1="40" x2="320" y2="60" stroke="#64748b" stroke-width="1" opacity="0.6"/>
</svg>
