<svg width="400" height="300" viewBox="0 0 400 300" fill="none" xmlns="http://www.w3.org/2000/svg">
  <rect width="400" height="300" fill="url(#gradient1)"/>
  
  <!-- Factory building -->
  <rect x="120" y="120" width="160" height="100" fill="#374151" rx="8"/>
  <rect x="140" y="140" width="30" height="30" fill="#6b7280"/>
  <rect x="180" y="140" width="30" height="30" fill="#6b7280"/>
  <rect x="220" y="140" width="30" height="30" fill="#6b7280"/>
  <rect x="140" y="180" width="30" height="30" fill="#6b7280"/>
  <rect x="180" y="180" width="30" height="30" fill="#6b7280"/>
  <rect x="220" y="180" width="30" height="30" fill="#6b7280"/>
  
  <!-- Chimney -->
  <rect x="250" y="80" width="20" height="60" fill="#374151"/>
  <rect x="245" y="75" width="30" height="10" fill="#6b7280"/>
  
  <!-- Smoke -->
  <path d="M260 75 Q270 65 280 75 Q290 65 300 75" stroke="#9ca3af" stroke-width="3" fill="none" opacity="0.6"/>
  <path d="M265 70 Q275 60 285 70 Q295 60 305 70" stroke="#9ca3af" stroke-width="3" fill="none" opacity="0.4"/>
  
  <!-- Gears -->
  <circle cx="80" cy="80" r="25" fill="#f59e0b" opacity="0.8"/>
  <circle cx="80" cy="80" r="20" fill="#fbbf24"/>
  <circle cx="80" cy="80" r="15" fill="#f59e0b"/>
  <circle cx="80" cy="80" r="5" fill="#ffffff"/>
  
  <!-- Gear teeth -->
  <rect x="55" y="80" width="10" height="4" fill="#d97706"/>
  <rect x="95" y="80" width="10" height="4" fill="#d97706"/>
  <rect x="80" y="55" width="4" height="10" fill="#d97706"/>
  <rect x="80" y="95" width="4" height="10" fill="#d97706"/>
  
  <circle cx="320" cy="80" r="25" fill="#f59e0b" opacity="0.8"/>
  <circle cx="320" cy="80" r="20" fill="#fbbf24"/>
  <circle cx="320" cy="80" r="15" fill="#f59e0b"/>
  <circle cx="320" cy="80" r="5" fill="#ffffff"/>
  
  <!-- Gear teeth -->
  <rect x="295" y="80" width="10" height="4" fill="#d97706"/>
  <rect x="335" y="80" width="10" height="4" fill="#d97706"/>
  <rect x="320" y="55" width="4" height="10" fill="#d97706"/>
  <rect x="320" y="95" width="4" height="10" fill="#d97706"/>
  
  <!-- Conveyor belt -->
  <rect x="50" y="220" width="300" height="20" fill="#6b7280"/>
  <rect x="50" y="225" width="300" height="10" fill="#9ca3af"/>
  
  <!-- Boxes on conveyor -->
  <rect x="70" y="200" width="30" height="20" fill="#3b82f6" rx="2"/>
  <rect x="120" y="200" width="30" height="20" fill="#10b981" rx="2"/>
  <rect x="170" y="200" width="30" height="20" fill="#f59e0b" rx="2"/>
  <rect x="220" y="200" width="30" height="20" fill="#ef4444" rx="2"/>
  <rect x="270" y="200" width="30" height="20" fill="#8b5cf6" rx="2"/>
  
  <!-- Security elements -->
  <circle cx="200" cy="40" r="15" fill="#10b981" opacity="0.8"/>
  <text x="200" y="46" text-anchor="middle" fill="white" font-family="Arial" font-size="16" font-weight="bold">🔒</text>
  
  <defs>
    <linearGradient id="gradient1" x1="0%" y1="0%" x2="100%" y2="100%">
      <stop offset="0%" style="stop-color:#f9fafb;stop-opacity:1" />
      <stop offset="100%" style="stop-color:#f3f4f6;stop-opacity:1" />
    </linearGradient>
  </defs>
</svg>
