<svg width="400" height="300" viewBox="0 0 400 300" fill="none" xmlns="http://www.w3.org/2000/svg">
  <rect width="400" height="300" fill="url(#gradient1)"/>
  
  <!-- Cloud platform -->
  <ellipse cx="200" cy="120" rx="80" ry="40" fill="#3b82f6" opacity="0.8"/>
  <ellipse cx="200" cy="120" rx="70" ry="35" fill="#60a5fa"/>
  <ellipse cx="200" cy="120" rx="60" ry="30" fill="#93c5fd"/>
  
  <!-- Code symbols -->
  <text x="160" y="115" fill="white" font-family="monospace" font-size="16" font-weight="bold">&lt;/&gt;</text>
  <text x="200" y="125" fill="white" font-family="monospace" font-size="14" font-weight="bold">{ }</text>
  <text x="240" y="115" fill="white" font-family="monospace" font-size="16" font-weight="bold">( )</text>
  
  <!-- Database -->
  <rect x="80" y="180" width="60" height="40" fill="#8b5cf6" rx="6"/>
  <rect x="85" y="185" width="50" height="2" fill="white"/>
  <rect x="85" y="190" width="50" height="2" fill="white"/>
  <rect x="85" y="195" width="50" height="2" fill="white"/>
  <rect x="85" y="200" width="50" height="2" fill="white"/>
  <rect x="85" y="205" width="50" height="2" fill="white"/>
  <rect x="85" y="210" width="50" height="2" fill="white"/>
  
  <rect x="260" y="180" width="60" height="40" fill="#8b5cf6" rx="6"/>
  <rect x="265" y="185" width="50" height="2" fill="white"/>
  <rect x="265" y="190" width="50" height="2" fill="white"/>
  <rect x="265" y="195" width="50" height="2" fill="white"/>
  <rect x="265" y="200" width="50" height="2" fill="white"/>
  <rect x="265" y="205" width="50" height="2" fill="white"/>
  <rect x="265" y="210" width="50" height="2" fill="white"/>
  
  <!-- API connections -->
  <line x1="140" y1="200" x2="180" y2="200" stroke="#10b981" stroke-width="2"/>
  <line x1="220" y1="200" x2="260" y2="200" stroke="#10b981" stroke-width="2"/>
  
  <!-- Mobile app -->
  <rect x="50" y="80" width="40" height="60" fill="#1f2937" rx="8"/>
  <rect x="55" y="85" width="30" height="20" fill="#3b82f6"/>
  <rect x="55" y="110" width="30" height="2" fill="#6b7280"/>
  <rect x="55" y="115" width="30" height="2" fill="#6b7280"/>
  <rect x="55" y="120" width="30" height="2" fill="#6b7280"/>
  <rect x="55" y="125" width="30" height="2" fill="#6b7280"/>
  <rect x="55" y="130" width="30" height="2" fill="#6b7280"/>
  
  <!-- Web interface -->
  <rect x="310" y="80" width="40" height="60" fill="#1f2937" rx="8"/>
  <rect x="315" y="85" width="30" height="20" fill="#3b82f6"/>
  <rect x="315" y="110" width="30" height="2" fill="#6b7280"/>
  <rect x="315" y="115" width="30" height="2" fill="#6b7280"/>
  <rect x="315" y="120" width="30" height="2" fill="#6b7280"/>
  <rect x="315" y="125" width="30" height="2" fill="#6b7280"/>
  <rect x="315" y="130" width="30" height="2" fill="#6b7280"/>
  
  <!-- Data flow -->
  <path d="M50 110 Q100 90 150 110 Q200 130 250 110 Q300 90 350 110" stroke="#10b981" stroke-width="2" fill="none" opacity="0.6"/>
  <path d="M50 130 Q100 150 150 130 Q200 110 250 130 Q300 150 350 130" stroke="#10b981" stroke-width="2" fill="none" opacity="0.6"/>
  
  <!-- Security elements -->
  <circle cx="200" cy="40" r="15" fill="#10b981" opacity="0.8"/>
  <text x="200" y="46" text-anchor="middle" fill="white" font-family="Arial" font-size="16" font-weight="bold">🔒</text>
  
  <!-- Digital transformation -->
  <text x="200" y="270" text-anchor="middle" fill="#6b7280" font-family="Arial" font-size="12" font-weight="bold">Digital Transformation</text>
  
  <defs>
    <linearGradient id="gradient1" x1="0%" y1="0%" x2="100%" y2="100%">
      <stop offset="0%" style="stop-color:#eff6ff;stop-opacity:1" />
      <stop offset="100%" style="stop-color:#dbeafe;stop-opacity:1" />
    </linearGradient>
  </defs>
</svg>
